# xmcd CD database file
#
# Track frame offsets:
#	150
#	29105
#	57875
#	88404
#	112236
#	149104
#	163120
#	179481
#	208615
#
# Disc length: 3475 seconds
#
# Revision: 0
# Processed by: cddbd v1.5.2PL0 Copyright (c) Steve Scherf et al.
# Submitted via: CDex 1.51
#
DISCID=940d9109
DTITLE=Eivind Aarset - Sonic Codex
DYEAR=2007
DGENRE=Jazz
TTITLE0=sign of seven
TTITLE1=quicksilver dream
TTITLE2=dröbak saray
TTITLE3=cameo
TTITLE4=still changing
TTITLE5=black noise/white silence
TTITLE6=family pictures III
TTITLE7=sleeps with fishes
TTITLE8=the return of black noise and murky lambada
EXTD=YEAR: 2007
EXTT0=
EXTT1=
EXTT2=
EXTT3=
EXTT4=
EXTT5=
EXTT6=
EXTT7=
EXTT8=
PLAYORDER=
